<svg xmlns="http://www.w3.org/2000/svg" xmlns:xlink="http://www.w3.org/1999/xlink" width="200" height="200" class="icon" p-id="15114" t="1590477711017" version="1.1" viewBox="0 0 1024 1024"><defs><style type="text/css"/></defs><path fill="#FF9800" d="M938.666667 384v-85.333333H725.333333V85.333333h-85.333333v213.333334h-85.333333V85.333333h-85.333334v213.333334h-85.333333V85.333333h-85.333333v213.333334H85.333333v85.333333h213.333334v85.333333H85.333333v85.333334h213.333334v85.333333H85.333333v85.333333h213.333334v213.333334h85.333333V725.333333h85.333333v213.333334h85.333334V725.333333h85.333333v213.333334h85.333333V725.333333h213.333334v-85.333333H725.333333v-85.333333h213.333334v-85.333334H725.333333v-85.333333h213.333334z" p-id="15115"/><path fill="#4CAF50" d="M170.666667 256v512c0 46.933333 38.4 85.333333 85.333333 85.333333h512c46.933333 0 85.333333-38.4 85.333333-85.333333V256c0-46.933333-38.4-85.333333-85.333333-85.333333H256c-46.933333 0-85.333333 38.4-85.333333 85.333333z" p-id="15116"/><path fill="#37474F" d="M661.333333 661.333333H362.666667c-23.466667 0-42.666667-19.2-42.666667-42.666666V405.333333c0-23.466667 19.2-42.666667 42.666667-42.666666h298.666666c23.466667 0 42.666667 19.2 42.666667 42.666666v213.333334c0 23.466667-19.2 42.666667-42.666667 42.666666z" p-id="15117"/></svg>